<?xml version="1.0" encoding="UTF-8"?>
<!DOCTYPE svg PUBLIC "-//W3C//DTD SVG 1.1//EN" "http://www.w3.org/Graphics/SVG/1.1/DTD/svg11.dtd">
<!-- Creator: CorelDRAW 2019 (64-Bit) -->
<svg xmlns="http://www.w3.org/2000/svg" xml:space="preserve" width="42.333mm" height="42.3333mm" version="1.1" style="shape-rendering:geometricPrecision; text-rendering:geometricPrecision; image-rendering:optimizeQuality; fill-rule:evenodd; clip-rule:evenodd"
viewBox="0 0 541.81 541.82"
 xmlns:xlink="http://www.w3.org/1999/xlink">
 <defs>
  <style type="text/css">
   <![CDATA[
    .fil1 {fill:#FEFEFE}
    .fil0 {fill:#FEFEFE;fill-rule:nonzero}
   ]]>
  </style>
 </defs>
 <g id="Capa_x0020_1">
  <metadata id="CorelCorpID_0Corel-Layer"/>
  <g id="_2374604578272">
   <g>
    <path class="fil0" d="M352.47 392.97l102.16 0 0 -65.78c0,-14.08 -0.77,-24.46 -2.37,-31.15 -1.53,-6.69 -4.46,-12.27 -8.64,-16.59 -3.83,-3.97 -8.15,-6.82 -13.03,-8.64 -4.81,-1.74 -11.15,-2.86 -19.1,-3.28l0 -4.6 130.32 0 0 4.6c-7.73,0.42 -14.01,1.54 -18.88,3.28 -4.81,1.74 -9.13,4.6 -12.96,8.57 -4.18,4.39 -7.11,9.9 -8.64,16.66 -1.6,6.76 -2.37,17.07 -2.37,31.01l0 150.67c0,13.94 0.77,24.18 2.37,30.87 1.54,6.69 4.46,12.27 8.64,16.8 3.83,3.83 8.15,6.62 12.96,8.5 4.88,1.81 11.15,2.93 18.88,3.35l0 4.6 -130.32 0 0 -4.6c7.95,-0.42 14.29,-1.54 19.1,-3.35 4.87,-1.88 9.19,-4.67 13.03,-8.5 4.18,-4.32 7.11,-9.83 8.64,-16.52 1.6,-6.69 2.37,-17 2.37,-31.01l0 -75.26 -102.16 0 0 -9.62z"/>
    <path class="fil0" d="M352.47 267.53c-7.73,0.42 -13.94,1.47 -18.68,3.14 -4.67,1.74 -8.99,4.53 -12.96,8.5 -2.99,2.86 -5.22,6.07 -6.76,9.55 -1.47,3.49 -2.51,7.88 -3.07,13.17 -0.91,7.11 -1.39,15.47 -1.39,25.16l0 150.67c0,14.07 0.83,24.46 2.43,31.29 1.67,6.83 4.6,12.26 8.78,16.38 7.53,7.24 18.05,11.15 31.64,11.85l0 4.6 -130.25 0 0 -4.6c7.88,-0.42 14.22,-1.54 19.1,-3.35 4.8,-1.88 9.13,-4.67 12.96,-8.5 4.18,-4.39 7.11,-9.97 8.64,-16.66 1.6,-6.76 2.37,-17.07 2.37,-31.01l0 -182.79 -105.23 246.9 -4.25 0 -104.6 -243.21 0 179.1c0,14.07 0.77,24.39 2.37,31.08 1.54,6.69 4.46,12.2 8.64,16.59 3.83,3.97 8.15,6.83 12.96,8.57 4.87,1.74 11.15,2.86 18.95,3.28l0 4.6 -94.15 0 0 -4.6c7.73,-0.42 14.01,-1.54 18.88,-3.28 4.81,-1.74 9.13,-4.6 12.96,-8.57 4.18,-4.39 7.11,-9.97 8.64,-16.66 1.6,-6.76 2.37,-17.07 2.37,-31.01l0 -150.67c0,-6.27 -0.21,-12.19 -0.63,-17.84 -0.7,-10.04 -2.23,-17.42 -4.67,-22.02 -3.42,-6.41 -8.08,-11.15 -14.01,-14.22 -5.92,-3.07 -13.8,-4.88 -23.55,-5.44l0 -4.6 88.57 0 88.36 218.47 91.64 -218.47 83.9 0 0 4.6z"/>
   </g>
   <polygon class="fil1" points="267.93,0 283.46,43.57 330.06,44.75 293.06,72.86 306.33,117.16 267.93,90.96 229.53,117.16 242.8,72.86 205.79,44.75 252.4,43.57 "/>
   <rect class="fil1" x="33.21" y="182.72" width="475.39" height="14.65"/>
   <polygon class="fil1" points="267.93,0 252.4,43.57 205.79,44.75 242.8,72.86 229.53,117.16 267.93,90.96 306.33,117.16 293.06,72.86 330.06,44.75 283.46,43.57 "/>
   <g>
    <polygon class="fil1" points="106.02,30.09 119.28,67.28 159.06,68.29 127.47,92.28 138.8,130.1 106.02,107.74 73.24,130.1 84.57,92.28 52.98,68.29 92.76,67.28 "/>
    <polygon class="fil1" points="429.84,30.09 416.58,67.28 376.8,68.29 408.39,92.28 397.06,130.1 429.84,107.74 462.62,130.1 451.29,92.28 482.88,68.29 443.1,67.28 "/>
   </g>
  </g>
 </g>
</svg>
